<svg xmlns="http://www.w3.org/2000/svg" viewBox="0 0 48 48"><defs><style>.cls-1{fill:#505572;}.cls-2{fill:#cc8679;}.cls-3{fill:#ffbc5a;}.cls-4{fill:#ef9d3a;}.cls-5{fill:#8491c1;}.cls-6{fill:#231f20;}</style></defs><title>Deposit</title><g id="Deposit"><rect class="cls-1" x="2" y="26" width="8" height="20" rx="2" ry="2"/><path class="cls-2" d="M10,29H24a3,3,0,0,1,3,3v0a3,3,0,0,1-3,3H10a0,0,0,0,1,0,0V29A0,0,0,0,1,10,29Z"/><path class="cls-2" d="M10,42l7.1554,3.5777A4,4,0,0,0,18.9443,46h7.8446a4,4,0,0,0,2.2188-.6718L44.6592,34.8939A3.0111,3.0111,0,0,0,46,32.3885h0a3.0111,3.0111,0,0,0-4.5892-2.5644L33,35H10Z"/><circle class="cls-3" cx="24" cy="13" r="11"/><circle class="cls-4" cx="24" cy="13" r="11"/><path class="cls-3" d="M24,22a9,9,0,1,1,9-9A9.01,9.01,0,0,1,24,22Z"/><path class="cls-1" d="M26,18H21a1,1,0,0,1,0-2h5V14H22a2.0023,2.0023,0,0,1-2-2V10a2.0023,2.0023,0,0,1,2-2h5a1,1,0,0,1,0,2H22v2h4a2.0023,2.0023,0,0,1,2,2v2A2.0023,2.0023,0,0,1,26,18Z"/><path class="cls-1" d="M24,10a1,1,0,0,1-1-1V7a1,1,0,0,1,2,0V9A1,1,0,0,1,24,10Z"/><path class="cls-1" d="M24,20a1,1,0,0,1-1-1V17a1,1,0,0,1,2,0v2A1,1,0,0,1,24,20Z"/><circle class="cls-5" cx="6" cy="31" r="1"/><circle class="cls-6" cx="6" cy="31" r="1"/><path class="cls-6" d="M44.9458,28.8877a3.9634,3.9634,0,0,0-4.0591.085L32.7168,34H27.4634A3.999,3.999,0,0,0,24,28H11a3.0033,3.0033,0,0,0-3-3H4a3.0033,3.0033,0,0,0-3,3V44a3.0033,3.0033,0,0,0,3,3H8a3.0033,3.0033,0,0,0,3-3v-.3818l5.7085,2.8544A5.0352,5.0352,0,0,0,18.9443,47h7.8447a4.9779,4.9779,0,0,0,2.7734-.84L45.2134,35.7256a4.01,4.01,0,0,0-.2676-6.8379ZM9,29V44a1.001,1.001,0,0,1-1,1H4a1.001,1.001,0,0,1-1-1V28a1.001,1.001,0,0,1,1-1H8a1.001,1.001,0,0,1,1,1Zm35.1045,5.0615L28.4526,44.4961A2.9822,2.9822,0,0,1,26.7891,45H18.9443a3.0181,3.0181,0,0,1-1.3418-.3164L11,41.3818V30H24a2,2,0,0,1,0,4H18.5415a1,1,0,0,0,0,2H33a1.0014,1.0014,0,0,0,.5239-.1484l8.4106-5.1758a2.011,2.011,0,0,1,2.17,3.3857Z"/><path class="cls-6" d="M24,25A12,12,0,1,0,12,13,12.0134,12.0134,0,0,0,24,25ZM24,3A10,10,0,1,1,14,13,10.0115,10.0115,0,0,1,24,3Z"/><path class="cls-6" d="M21,16a1,1,0,0,0,0,2h2v1a1,1,0,0,0,2,0V18h1a2.0023,2.0023,0,0,0,2-2V14a2.0023,2.0023,0,0,0-2-2H22V10h5a1,1,0,0,0,0-2H25V7a1,1,0,0,0-2,0V8H22a2.0023,2.0023,0,0,0-2,2v2a2.0023,2.0023,0,0,0,2,2h4v2Z"/></g></svg>