<?xml version="1.0" encoding="utf-8"?>
<!-- Generator: Adobe Illustrator 23.0.3, SVG Export Plug-In . SVG Version: 6.00 Build 0)  -->
<svg version="1.1" xmlns="http://www.w3.org/2000/svg" xmlns:xlink="http://www.w3.org/1999/xlink" x="0px" y="0px"
	 viewBox="0 0 256 256" style="enable-background:new 0 0 256 256;" xml:space="preserve">
<style type="text/css">
	.st0{fill:#878787;}
	.st1{fill:#F2E1D6;}
	.st2{fill:#FFFFFF;}
	.st3{fill:#F0C020;}
	.st4{fill:#F9E5AF;}
	.st5{fill:#72C1E8;}
	.st6{fill:#C5E5FF;}
	.st7{fill:#13BF6D;}
	.st8{fill:#76FFBA;}
	.st9{fill:#EFEFEF;}
	.st10{fill:#FC5D3D;}
	.st11{fill:#FFCBC2;}
	.st12{fill:#FFB69F;}
	.st13{fill:#AFAFAF;}
	.st14{fill:#7C7B7A;}
	.st15{fill:#D6C0B4;}
	.st16{fill:#7A7380;}
	.st17{fill:#F0AB20;}
	.st18{fill:#FBE0E2;}
	.st19{fill:#4C4945;}
	.st20{fill:#68B0D4;}
	.st21{fill:#B35034;}
	.st22{fill:#EDAF85;}
	.st23{fill:#139C6D;}
</style>
<g id="Layer_2">
</g>
<g id="Layer_1">
	<g>
		<g>
			<g>
				<g>
					<polygon class="st9" points="97.015,136.686 97.015,242.75 5.973,242.75 5.973,113.426 73.757,113.426 					"/>
				</g>
				<g>
					<path class="st14" d="M97.015,136.686H75.342c-0.878,0-1.59-0.712-1.59-1.59l0.004-21.671L97.015,136.686z"/>
				</g>
				<g>
					<path class="st2" d="M88.059,235.685h-74.19c-1.381,0-2.5-1.119-2.5-2.5V122.99c0-1.381,1.119-2.5,2.5-2.5s2.5,1.119,2.5,2.5
						v107.694h71.69c1.381,0,2.5,1.119,2.5,2.5S89.44,235.685,88.059,235.685z"/>
				</g>
			</g>
			<g>
				<polygon class="st9" points="250.027,136.686 250.027,242.75 158.985,242.75 158.985,113.426 226.765,113.426 				"/>
			</g>
			
				<ellipse transform="matrix(0.9871 -0.1602 0.1602 0.9871 -25.8858 35.0578)" class="st3" cx="204.506" cy="178.088" rx="13.098" ry="13.098"/>
			<g>
				<path class="st14" d="M250.027,136.686h-21.673c-0.878,0-1.59-0.712-1.59-1.59v-21.671L250.027,136.686z"/>
			</g>
			<g>
				<path class="st2" d="M241.072,235.685h-74.19c-1.381,0-2.5-1.119-2.5-2.5V122.99c0-1.381,1.119-2.5,2.5-2.5s2.5,1.119,2.5,2.5
					v107.694h71.69c1.381,0,2.5,1.119,2.5,2.5S242.452,235.685,241.072,235.685z"/>
			</g>
			<g>
				<polygon class="st10" points="51.494,164.989 36.37,191.186 66.619,191.186 				"/>
			</g>
			<g>
				<g>
					<path class="st5" d="M173.232,58.505c0,14.093-6.442,26.674-16.558,34.976c-7.814,6.395-17.791,10.256-28.674,10.256
						s-20.86-3.861-28.674-10.256C89.21,85.18,82.769,72.598,82.769,58.505c0-25,20.255-45.255,45.232-45.255
						S173.232,33.506,173.232,58.505z"/>
				</g>
				<g>
					<path class="st10" d="M156.674,90.761v2.721c-7.814,6.395-17.791,10.256-28.674,10.256s-20.86-3.861-28.674-10.256v-2.721
						c0-12.837,10.395-23.255,23.255-23.255h10.837C146.279,67.505,156.674,77.924,156.674,90.761z"/>
				</g>
				<g>
					<g>
						<path class="st11" d="M145.168,89.802c-0.448-6.118-5.609-10.91-11.749-10.91c-1.381,0-2.5-1.119-2.5-2.5s1.119-2.5,2.5-2.5
							c8.746,0,16.096,6.828,16.735,15.545c0.101,1.377-0.934,2.575-2.311,2.676C146.489,92.219,145.27,91.194,145.168,89.802z"/>
					</g>
				</g>
				<g>
					<path class="st14" d="M143.087,28.004l-5.535,2.888c-1.422,0.742-3.002,1.13-4.606,1.13h-11.091
						c-4.115,0-6.684,3.466-6.684,7.746v4.204h25.671l0,0C144.601,39.966,145.93,33.86,143.087,28.004z"/>
				</g>
				<g>
					<path class="st12" d="M128.014,67.505L128.014,67.505c-7.085,0-12.842-5.743-12.842-12.828V43.971h25.671v10.706
						C140.842,61.762,135.099,67.505,128.014,67.505z"/>
				</g>
			</g>
		</g>
		<circle cx="5.97" cy="159.859" r="2.5"/>
		<path d="M3.47,242.75c0,1.402,1.146,2.5,2.5,2.5h91.05c1.373,0,2.49-1.111,2.49-2.5v-58.51h56.97v58.51
			c0,1.403,1.144,2.5,2.51,2.5h91.04c1.398,0,2.5-1.137,2.5-2.5V136.689c0-0.688-0.329-1.367-0.745-1.778
			c-0.57-0.57-5.009-5.016-23.245-23.251c-0.409-0.41-1.088-0.73-1.77-0.73h-67.78c-1.433,0-2.51,1.168-2.51,2.5v65.811H130.5
			v-73.071c25.193-1.302,45.23-22.125,45.23-47.669c0-5.07-0.79-10.07-2.35-14.851c-0.42-1.279-1.86-2.02-3.15-1.6
			c-1.339,0.439-2.023,1.846-1.61,3.15c1.4,4.29,2.11,8.76,2.11,13.3c0,11.038-4.222,21.485-11.72,29.386
			c-1.235-11.067-9.507-20.036-20.228-22.316c2.813-2.78,4.561-6.635,4.561-10.894v-9.79c3.904-4.743,5.085-11.606,1.994-17.975
			c-0.619-1.274-2.163-1.771-3.405-1.125l-5.535,2.889c-1.061,0.553-2.253,0.846-3.449,0.846h-11.091
			c-5.322,0-9.184,4.31-9.184,10.246c0,1.453,0.014,7.494,0.014,14.909c0,4.255,1.745,8.109,4.555,10.889
			c-10.731,2.272-19.013,11.245-20.25,22.319C89.493,79.979,85.27,69.539,85.27,58.5c0-23.6,19.098-42.75,42.73-42.75
			c11.85,0,22.88,4.75,31.03,13.359c0.92,0.971,2.57,1.021,3.54,0.101c1-0.95,1.04-2.53,0.1-3.53
			c-8.786-9.283-21.112-14.93-34.67-14.93c-26.281,0-47.73,21.284-47.73,47.75c0,25.802,20.303,46.378,45.23,47.669v73.071H99.51
			v-42.551c0-0.682-0.307-1.344-0.725-1.764c-0.002-0.002-0.003-0.005-0.006-0.008c-0.451-0.451-23.715-23.717-23.27-23.267
			c-0.39-0.394-1.054-0.721-1.749-0.721H5.97c-1.399,0-2.5,1.148-2.5,2.5v36.43c0,1.381,1.12,2.5,2.5,2.5s2.5-1.119,2.5-2.5v-33.93
			h62.783v19.167c0,2.255,1.834,4.089,4.09,4.089H94.52c0,11.691,0,90.2,0,101.064H8.47v-70.391c0-1.38-1.12-2.5-2.5-2.5
			c-1.37,0-2.5,1.12-2.5,2.5V242.75z M229.265,119.462c1.322,1.321,13.126,13.126,14.723,14.723h-14.723V119.462z M161.49,115.93
			h62.775v19.167c0,2.255,1.834,4.089,4.09,4.089h19.175V240.25h-86.04V115.93z M117.686,46.472h20.657v8.205
			c0,5.695-4.633,10.328-10.329,10.328c-5.695,0-10.328-4.633-10.328-10.328V46.472z M117.672,39.768
			c0-2.611,1.294-5.246,4.184-5.246h11.091c1.999,0,3.991-0.489,5.762-1.413l3.047-1.59c0.872,3.426,0.121,7.136-2.074,9.953h-22.01
			V39.768z M122.582,70.005h10.837c11.445,0,20.756,9.312,20.756,20.756v1.506c-15.502,12.034-37.043,11.87-52.349,0.001v-1.507
			C101.826,79.316,111.137,70.005,122.582,70.005z M76.253,134.186v-14.724l14.723,14.724H76.253z"/>
		<path d="M22.7,226.45h57.59c1.38,0,2.5-1.12,2.5-2.5c0-1.381-1.12-2.5-2.5-2.5H22.7c-1.38,0-2.5,1.119-2.5,2.5
			C20.2,225.33,21.32,226.45,22.7,226.45z"/>
		<path d="M22.7,215.56h57.59c1.37,0,2.5-1.12,2.5-2.5s-1.13-2.5-2.5-2.5H22.7c-1.38,0-2.5,1.12-2.5,2.5S21.32,215.56,22.7,215.56z"
			/>
		<path d="M22.7,136.53h29.28c1.38,0,2.5-1.12,2.5-2.49c0-1.38-1.12-2.5-2.5-2.5H22.7c-1.38,0-2.5,1.12-2.5,2.5
			C20.2,135.41,21.32,136.53,22.7,136.53z"/>
		<path d="M22.7,146.89h29.28c1.38,0,2.5-1.12,2.5-2.5s-1.12-2.5-2.5-2.5H22.7c-1.38,0-2.5,1.12-2.5,2.5S21.32,146.89,22.7,146.89z"
			/>
		<path d="M175.71,226.45h57.59c1.38,0,2.5-1.12,2.5-2.5c0-1.381-1.12-2.5-2.5-2.5h-57.59c-1.38,0-2.5,1.119-2.5,2.5
			C173.21,225.33,174.33,226.45,175.71,226.45z"/>
		<path d="M175.71,215.56h57.59c1.38,0,2.5-1.12,2.5-2.5s-1.12-2.5-2.5-2.5h-57.59c-1.38,0-2.5,1.12-2.5,2.5
			S174.33,215.56,175.71,215.56z"/>
		<path d="M175.71,136.53h29.28c1.38,0,2.5-1.12,2.5-2.49c0-1.38-1.12-2.5-2.5-2.5h-29.28c-1.37,0-2.5,1.12-2.5,2.5
			C173.21,135.41,174.34,136.53,175.71,136.53z"/>
		<path d="M175.71,146.89h29.28c1.38,0,2.5-1.12,2.5-2.5s-1.12-2.5-2.5-2.5h-29.28c-1.38,0-2.5,1.12-2.5,2.5
			S174.33,146.89,175.71,146.89z"/>
		<path d="M215.05,177.01c0.691,6.032-4.172,11.67-10.54,11.67c-5.84,0-10.59-4.76-10.6-10.59c-0.01-5.62,4.38-10.271,9.99-10.58
			c1.38-0.08,2.43-1.27,2.35-2.64c-0.07-1.37-1.26-2.44-2.63-2.36c-8.25,0.47-14.71,7.31-14.71,15.58c0,8.6,7,15.59,15.6,15.6
			c9.021-0.01,16.422-7.748,15.52-17.18c-0.14-1.37-1.38-2.38-2.74-2.24C215.92,174.41,214.91,175.64,215.05,177.01z"/>
		<path d="M214.91,169.74c0.89-1.051,0.76-2.631-0.28-3.521c-1.01-0.86-2.67-0.729-3.53,0.28c-0.889,1.034-0.778,2.628,0.28,3.52
			C212.389,170.896,213.982,170.822,214.91,169.74z"/>
		<path d="M49.33,163.74L34.2,189.939c-0.953,1.67,0.248,3.75,2.17,3.75h30.25c1.933,0,3.12-2.108,2.16-3.75L53.66,163.74
			C52.686,162.071,50.277,162.083,49.33,163.74z M40.7,188.68l10.79-18.689l10.8,18.689H40.7z"/>
		<path d="M168.15,37.5c1.18-0.71,1.57-2.25,0.87-3.431c-0.68-1.14-2.28-1.55-3.43-0.869c-1.18,0.699-1.57,2.239-0.87,3.42v0.01
			C165.405,37.771,166.921,38.223,168.15,37.5z"/>
	</g>
</g>
</svg>
