<?xml version="1.0" encoding="utf-8"?>
<!-- Generator: Adobe Illustrator 23.0.6, SVG Export Plug-In . SVG Version: 6.00 Build 0)  -->
<svg version="1.1" id="Layer_1" xmlns="http://www.w3.org/2000/svg" xmlns:xlink="http://www.w3.org/1999/xlink" x="0px" y="0px"
	 viewBox="0 0 128 128" style="enable-background:new 0 0 128 128;" xml:space="preserve">
<style type="text/css">
	.st0{fill:#318FB5;}
	.st1{fill:#FFFFFF;}
	.st2{fill:#B8D8D3;}
	.st3{fill:#172956;}
</style>
<title>TIME MANAGEMENT</title>
<g>
	<g>
		<g>
			<path class="st0" d="M98.1,51.7c-3,1.7-5,4.7-5.4,8c-2.7-1.1-5.5-1.6-8.4-1.6c-1.3,0-2.5,0.1-3.8,0.3
				c-12.4,2.1-20.8,13.8-18.8,26.3c0.9,5.7,4,10.8,8.6,14.3c-0.4,0.1-0.7,0.2-1.1,0.3c-2.8,0.3-5.6,0.3-8.4,0
				c-2.4-0.2-4.2-2.3-4.2-4.7c0.1-6-4.6-10.9-10.5-11.1c-2,0-4,0.5-5.7,1.5c-2.1,1.3-4.9,0.7-6.3-1.3c-0.8-1.1-1.6-2.3-2.3-3.5
				c-0.7-1.2-1.4-2.5-1.9-3.8c-0.9-2.3,0-4.9,2.1-6c5.2-2.9,7-9.5,4.1-14.7c-1-1.7-2.4-3.1-4.1-4.1c-2.1-1.2-3-3.8-2.1-6
				c1.1-2.6,2.5-5,4.2-7.3c1.5-2,4.2-2.6,6.3-1.3c5.1,3,11.7,1.3,14.8-3.8c1-1.7,1.5-3.7,1.5-5.7c0-2.4,1.8-4.4,4.2-4.7
				c2.8-0.3,5.6-0.3,8.4,0c2.4,0.2,4.2,2.3,4.2,4.7c-0.1,6,4.6,10.9,10.5,11c2,0,4-0.5,5.7-1.5c2.1-1.3,4.9-0.7,6.3,1.3
				c0.8,1.1,1.6,2.3,2.3,3.5c0.7,1.2,1.4,2.5,1.9,3.8C101.2,47.9,100.3,50.5,98.1,51.7z"/>
			<path class="st1" d="M80.6,58.5c-9,1.5-16.2,8.2-18.4,17c-8.5-1.6-14.1-9.7-12.6-18.2c1.6-8.5,9.7-14.1,18.2-12.6
				C74.7,45.9,79.9,51.5,80.6,58.5z"/>
		</g>
		<path class="st2" d="M107.2,81c0,12.6-10.2,22.8-22.8,22.8S61.5,93.6,61.5,81c0-11.2,8.1-20.7,19.1-22.5c1.2-0.2,2.5-0.3,3.8-0.3
			C96.9,58.1,107.2,68.4,107.2,81z"/>
	</g>
</g>
<path class="st3" d="M104.7,94.7c-0.3,0.5-0.7,1-1,1.4c-0.6,0.8-1.7,0.9-2.5,0.3c-0.8-0.6-0.9-1.7-0.3-2.5l0,0
	c0.3-0.4,0.6-0.8,0.9-1.2c0.5-0.8,1.6-1,2.4-0.5C105,92.8,105.3,93.9,104.7,94.7L104.7,94.7z M98.4,71.6c-0.5-0.8-1.6-1-2.4-0.5
	l-11.6,7.7l-9.1-6.3c-0.8-0.5-1.9-0.3-2.4,0.5c-0.5,0.8-0.3,1.9,0.5,2.4l7.9,5.5l-2,1.4c-0.8,0.5-1,1.6-0.5,2.4
	c0.5,0.8,1.6,1,2.4,0.5l3.2-2.1l3.2,2.2c0.8,0.6,1.9,0.4,2.4-0.4c0.6-0.8,0.4-1.9-0.5-2.5l-2-1.4l10.4-6.9
	C98.7,73.5,98.9,72.4,98.4,71.6z M108.9,81c0,2.3-0.3,4.4-0.9,6.6c-0.2,0.9-1.2,1.5-2.1,1.3s-1.5-1.2-1.3-2.1
	c0.3-1.3,0.6-2.3,0.7-3.9H104c-1,0-1.8-0.8-1.8-1.8s0.8-1.8,1.8-1.8l0,0h1.3c-0.8-10.1-8.8-18.4-19.3-19.3v1.3c0,1-0.8,1.8-1.8,1.8
	s-1.8-0.8-1.8-1.8V60c-11.1,0.9-18.5,9.5-19.3,19.3h1.3c1,0,1.8,0.8,1.8,1.8s-0.8,1.8-1.8,1.8h-1.3c0.9,10.3,9,18.4,19.3,19.3v-1.3
	c0-1,0.8-1.8,1.8-1.8s1.8,0.8,1.8,1.8v1.3c3.8-0.3,7.4-1.6,10.5-3.9c0.8-0.6,1.9-0.4,2.4,0.4s0.4,1.9-0.4,2.4
	c-4.3,3.1-9.3,4.6-14.3,4.6c-5.3,0-10.3-1.7-14.3-4.6c-1.4,0.3-5.5,0.5-9.4,0.1c-3.3-0.3-5.8-3.1-5.8-6.4c0.2-7.1-7.6-11.6-13.6-8
	c-2.9,1.7-6.6,1-8.6-1.7c-1.7-2.4-3.2-4.9-4.4-7.6c-1.3-3.1-0.1-6.6,2.9-8.3c0.8-0.5,1.5-1,2.1-1.7c0.7-0.7,1.8-0.7,2.5-0.1
	c0.7,0.7,0.7,1.8,0.1,2.5l0,0c-0.9,0.9-1.9,1.7-3,2.3c-1.4,0.7-2,2.4-1.4,3.8c1.1,2.4,2.4,4.8,4,7c0.9,1.3,2.7,1.6,4,0.8
	c8.6-5,19.1,1.4,18.9,11.1c0,1.5,1.2,2.7,2.7,2.9c1.8,0.2,4.4,0.2,5.4,0.2c-1.3-1.4-2.5-3.1-3.3-4.6c-2.4-4.6-3.3-10.2-3.3-12.2
	c0-1.4,0.1-2.8,0.4-4.2C50.9,74,45.6,64.4,48.3,55.1c2.7-9.2,12.4-14.5,21.6-11.8c6.2,1.8,10.8,6.9,12.2,13.2c0.2,0,1.2-0.1,2-0.1
	c2.5,0,4.7,0.2,7.4,1c0.9-3.1,3-5.7,5.8-7.3c1.4-0.7,2-2.4,1.4-3.8c-1.1-2.5-2.4-4.8-4-7c-0.9-1.3-2.7-1.6-4-0.8
	c-8.5,5-19.1-1.4-18.9-11.1c0-1.5-1.2-2.7-2.7-2.9c-2.7-0.3-5.4-0.3-8,0c-1.5,0.1-2.7,1.4-2.7,2.9c0.2,9.9-10.5,16.1-18.9,11.1
	c-1.3-0.8-3.1-0.5-4,0.8c-1.6,2.2-2.9,4.5-4,7c-0.6,1.4,0,3.1,1.4,3.8c4.2,2.4,6.7,7,6.3,11.8c-0.1,1-0.9,1.7-1.8,1.6
	s-1.7-0.9-1.6-1.8c0.2-3.8-1.7-6.9-4.6-8.5c-2.9-1.6-4.2-5.2-2.8-8.2c1.2-2.7,2.7-5.3,4.4-7.6c2-2.7,5.7-3.5,8.6-1.8
	c6.1,3.6,13.8-1,13.6-8c0-3.3,2.5-6.1,5.8-6.4c2.9-0.3,5.9-0.3,8.8,0c3.3,0.3,5.8,3.1,5.8,6.5c-0.2,7.1,7.6,11.5,13.6,8
	c2.9-1.7,6.6-1,8.6,1.7c1.7,2.3,3.2,5,4.4,7.6c1.3,3.1,0.1,6.6-2.9,8.3c-2.1,1.2-3.6,3.2-4.2,5.5C109.7,65.6,108.9,80.6,108.9,81z
	 M61,73.3c5-14.3,17.2-16,17.6-16.3c-1.6-7.5-9.1-12.2-16.6-10.6S49.8,55.5,51.4,63C52.5,67.9,56.2,71.9,61,73.3z"/>
</svg>
