<svg xmlns="http://www.w3.org/2000/svg" viewBox="0 0 48 48"><defs><style>.cls-1{fill:#edb996;}.cls-2{fill:#f6ccaf;}.cls-3{fill:#f29b75;}.cls-4{fill:#df8761;}.cls-5{fill:#cc734c;}.cls-6{fill:#374f68;}.cls-7{fill:#425b72;}</style></defs><title>Wallet</title><g id="Wallet"><path class="cls-1" d="M33,28a5,5,0,0,0,5,5h7v6a6,6,0,0,1-6,6H7a6,6,0,0,1-6-6V7a4,4,0,0,0,4,4H39a6,6,0,0,1,6,6v6H38A5,5,0,0,0,33,28Z"/><path class="cls-2" d="M34.46,31.54C36.37,33.43,37.84,33,45,33c0,5.8.45,7.81-1.54,10H16a4,4,0,0,1-4-4V11H39a6,6,0,0,1,6,6v6H38.24A5,5,0,0,0,34.46,31.54Z"/><path class="cls-3" d="M47,25v6a2,2,0,0,1-2,2c-7.45,0-8.69.37-10.54-1.46A5,5,0,0,1,38,23h7A2,2,0,0,1,47,25Z"/><path class="cls-1" d="M45,33v.72A1.88,1.88,0,0,1,44,34c-7.45,0-8.69.37-10.54-1.46A5,5,0,0,1,34,25a5,5,0,0,0,.45,6.53C36.37,33.43,37.84,33,45,33Z"/><path class="cls-4" d="M45,9v8a6,6,0,0,0-6-6H5A4,4,0,1,1,5,3H39A6,6,0,0,1,45,9Z"/><path class="cls-3" d="M45,9v8a6,6,0,0,0-6-6H12V8H38a1,1,0,0,0,0-2H12a3,3,0,0,1,3-3H39A6,6,0,0,1,45,9Z"/><path class="cls-4" d="M38,8H12V6H38A1,1,0,0,1,38,8Z"/><path class="cls-5" d="M12,6V8H8A1,1,0,0,1,8,6Z"/><circle class="cls-6" cx="39" cy="28" r="2"/><path class="cls-7" d="M39,26a2,2,0,0,0-1.82,1.18,2,2,0,0,1,2.64,2.64A2,2,0,0,0,39,26Z"/></g></svg>